<svg xmlns="http://www.w3.org/2000/svg" width="202" height="84" viewBox="0 0 202 84">
    <g fill="none" fill-rule="evenodd">
        <path d="M15 12h172v61H15z"/>
        <path fill="#FFF" fill-rule="nonzero" d="M52.752 34.685c0 1.74-1.428 3.15-3.188 3.15-1.762 0-3.189-1.41-3.189-3.15 0-1.739 1.427-3.148 3.19-3.148 1.76 0 3.187 1.409 3.187 3.148M66.047 28.874a3.278 3.278 0 0 0-4.53.07h-.004l-.029.033-.03.027a3.093 3.093 0 0 0-.228.27c-1.882 2.258-.39 3.862-2.613 6.187-2.206 2.31-3.904.964-6.056 2.884-.096.08-.187.163-.275.254l-.04.049c-.018.016-.035.03-.052.047l.007.005a3.123 3.123 0 0 0-.444.674c-.018.035-.032.071-.049.107a3.075 3.075 0 0 0-.16.403c-.027.088-.045.179-.065.27-.02.094-.041.188-.052.282-.016.121-.017.245-.018.37 0 .073-.003.146.002.22.003.045-.003.09.002.135h-.007c.004.025.01.045.013.068.003.021.003.04.008.062.018.12.044.239.076.355.646 2.738 2.777 2.593 3.245 5.674.473 3.104-1.639 3.57-1.404 6.433.005.112.014.226.032.341.002.012.007.026.007.038l.006.045h.004c.302 1.674 1.898 2.818 3.61 2.563 1.714-.255 2.898-1.811 2.688-3.5l.004-.002-.01-.042-.002-.04a3.431 3.431 0 0 0-.072-.336c-.628-2.802-2.785-2.634-3.26-5.737-.374-2.47.655-2.904 1.296-4.933.642-2.029.155-3.46 2.17-5.567 2.223-2.326 3.93-.947 6.105-2.93.09-.076.175-.155.257-.241l.027-.031.033-.032-.003-.002a3.18 3.18 0 0 0-.189-4.473"/>
        <path fill="#FFF" fill-rule="nonzero" stroke="#FFF" d="M37.95 40.705H32.77v3.822h4.64c.18 0 .208.027.208.136v.408c0 .109-.042.135-.207.135h-4.64v3.85c0 .164.014.19-.097.19h-.593c-.082 0-.082.015-.082-.19v-8.91c0-.04.082-.122.096-.122h5.84c.11 0 .138.027.138.137v.38c0 .123-.015.164-.125.164M79.466 49.479c-2.218 0-3.622-1.362-3.622-3.755V40.12c0-.096.014-.096.096-.096h.579c.096 0 .096 0 .096.11v5.59c0 2.176 1.102 3.073 2.85 3.073 1.75 0 2.852-.897 2.852-3.073V40.12c0-.081 0-.096.055-.096h.619c.097 0 .097 0 .097.096v5.618c0 2.38-1.405 3.74-3.622 3.74M101.823 49.67c-1.804 0-3.14-.75-3.65-2.028-.083-.203-.055-.203.055-.245l.51-.177c.124-.054.124-.013.152.068.385 1.075 1.459 1.715 2.878 1.715 1.762 0 2.671-.654 2.671-1.81 0-1.238-.964-1.672-2.561-2.013-.125-.027-.4-.081-.523-.108-1.75-.395-2.92-1.02-2.92-2.53 0-1.497 1.157-2.518 3.291-2.518 1.86 0 2.892.953 3.292 2.055.04.122.04.163-.083.217l-.414.177c-.095.055-.123.027-.15-.04-.386-1.048-1.226-1.742-2.673-1.742-1.776 0-2.52.749-2.52 1.756 0 1.129.978 1.618 2.41 1.916.125.028.386.082.524.11 1.707.353 3.072.979 3.072 2.557 0 1.782-1.268 2.64-3.361 2.64M121.759 49.246h-.496c-.11 0-.138-.013-.138-.123v-8.936c0-.149.027-.163.152-.163h.51c.082 0 .11.027.11.163v8.936c0 .11-.014.123-.138.123M142.545 49.67c-2.782 0-4.889-2.15-4.889-4.816s2.107-4.83 4.89-4.83c2.78 0 4.888 2.164 4.888 4.83s-2.108 4.815-4.889 4.815m0-8.964c-2.314 0-4.09 1.877-4.09 4.149 0 2.27 1.79 4.134 4.09 4.134 2.299 0 4.09-1.863 4.09-4.134 0-2.272-1.776-4.149-4.09-4.149M169.477 49.49c-.098 0-.153-.04-.208-.108-.688-.83-6.403-7.616-6.403-7.616v7.467c0 .108-.014.122-.096.122h-.565c-.083 0-.111-.014-.111-.136v-9.086c0-.068.056-.109.125-.109.082 0 .137.028.207.096.908.979 6.43 7.644 6.43 7.644v-7.508c0-.11.028-.123.124-.123h.537c.097 0 .11.027.11.164v9.071c0 .07-.041.123-.15.123"/>
    </g>
</svg>
