<svg width="300" height="34" fill="none" xmlns="http://www.w3.org/2000/svg">
  <path d="M21.752 6.685c0 1.74-1.428 3.15-3.188 3.15-1.762 0-3.189-1.41-3.189-3.15 0-1.739 1.427-3.148 3.19-3.148 1.76 0 3.187 1.409 3.187 3.148zM35.047.874a3.278 3.278 0 0 0-4.53.07h-.004l-.029.033-.03.027a3.092 3.092 0 0 0-.228.27c-1.882 2.258-.39 3.862-2.613 6.187-2.206 2.31-3.904.964-6.056 2.884a3.46 3.46 0 0 0-.275.254l-.04.049c-.018.016-.035.03-.052.047l.007.005a3.123 3.123 0 0 0-.444.674c-.018.035-.032.071-.049.107-.063.13-.116.265-.16.403-.027.088-.045.179-.065.27-.02.094-.041.188-.052.282a3.017 3.017 0 0 0-.018.37c0 .073-.003.146.002.22.003.045-.003.09.002.135h-.007c.004.025.01.045.013.068.003.021.003.04.008.062.018.12.044.239.076.355.646 2.738 2.777 2.593 3.245 5.674.473 3.104-1.639 3.57-1.404 6.433.005.112.014.226.032.341.002.012.007.026.007.038l.006.045h.004c.302 1.674 1.898 2.818 3.61 2.563 1.714-.255 2.898-1.811 2.688-3.5l.004-.002-.01-.042-.002-.04a3.438 3.438 0 0 0-.072-.336c-.628-2.802-2.785-2.634-3.26-5.737-.374-2.47.655-2.904 1.296-4.933.642-2.029.155-3.46 2.17-5.567 2.223-2.326 3.93-.947 6.105-2.93.09-.076.175-.155.257-.241l.027-.031.033-.032-.003-.002a3.18 3.18 0 0 0-.189-4.473zM6.95 12.705H1.77v3.822h4.64c.18 0 .208.027.208.136v.408c0 .109-.042.135-.207.135h-4.64v3.85c0 .164.014.19-.097.19h-.593c-.082 0-.082.015-.082-.19v-8.91c0-.04.082-.122.096-.122h5.84c.11 0 .138.027.138.137v.38c0 .123-.015.164-.125.164h.002zm41.516 8.774c-2.218 0-3.622-1.362-3.622-3.755V12.12c0-.096.014-.096.096-.096h.579c.096 0 .096 0 .096.11v5.59c0 2.176 1.102 3.073 2.85 3.073 1.75 0 2.852-.897 2.852-3.073V12.12c0-.081 0-.096.055-.096h.619c.097 0 .097 0 .097.096v5.618c0 2.38-1.405 3.74-3.622 3.74v.001zm22.357.191c-1.804 0-3.14-.75-3.65-2.028-.083-.203-.055-.203.055-.245l.51-.177c.124-.054.124-.013.152.068.385 1.075 1.459 1.715 2.878 1.715 1.762 0 2.671-.654 2.671-1.81 0-1.238-.964-1.672-2.561-2.013-.125-.027-.4-.081-.523-.108-1.75-.395-2.92-1.02-2.92-2.53 0-1.497 1.157-2.518 3.291-2.518 1.86 0 2.892.953 3.292 2.055.04.122.04.163-.083.217l-.414.177c-.095.055-.123.027-.15-.04-.386-1.048-1.226-1.742-2.673-1.742-1.776 0-2.52.749-2.52 1.756 0 1.129.978 1.618 2.41 1.916.125.028.386.082.524.11 1.707.353 3.072.979 3.072 2.557 0 1.782-1.268 2.64-3.361 2.64zm19.936-.424h-.496c-.11 0-.138-.013-.138-.123v-8.936c0-.149.027-.163.152-.163h.51c.082 0 .11.027.11.163v8.936c0 .11-.014.123-.138.123zm20.786.424c-2.782 0-4.889-2.15-4.889-4.816s2.107-4.83 4.89-4.83c2.78 0 4.888 2.164 4.888 4.83s-2.108 4.815-4.889 4.815v.001zm0-8.965c-2.314 0-4.09 1.877-4.09 4.149 0 2.27 1.79 4.134 4.09 4.134 2.299 0 4.09-1.863 4.09-4.134 0-2.272-1.776-4.149-4.09-4.149zm26.932 8.785c-.098 0-.153-.04-.208-.108-.688-.83-6.403-7.616-6.403-7.616v7.467c0 .108-.014.122-.096.122h-.565c-.083 0-.111-.014-.111-.136v-9.086c0-.068.056-.109.125-.109.082 0 .137.028.207.096.908.979 6.43 7.644 6.43 7.644v-7.508c0-.11.028-.123.124-.123h.537c.097 0 .11.027.11.164v9.071c0 .07-.041.123-.15.123" fill="#fff"/>
  <path d="M138.477 21.49c-.098 0-.153-.04-.208-.108-.688-.83-6.403-7.616-6.403-7.616v7.467c0 .108-.014.122-.096.122h-.565c-.083 0-.111-.014-.111-.136v-9.086c0-.068.056-.109.125-.109.082 0 .137.028.207.096.908.979 6.43 7.644 6.43 7.644v-7.508c0-.11.028-.123.124-.123h.537c.097 0 .11.027.11.164v9.071c0 .07-.041.123-.15.123M6.95 12.705H1.77v3.822h4.64c.18 0 .208.027.208.136v.408c0 .109-.042.135-.207.135h-4.64v3.85c0 .164.014.19-.097.19h-.593c-.082 0-.082.015-.082-.19v-8.91c0-.04.082-.122.096-.122h5.84c.11 0 .138.027.138.137v.38c0 .123-.015.164-.125.164h.002zm41.516 8.774c-2.218 0-3.622-1.362-3.622-3.755V12.12c0-.096.014-.096.096-.096h.579c.096 0 .096 0 .096.11v5.59c0 2.176 1.102 3.073 2.85 3.073 1.75 0 2.852-.897 2.852-3.073V12.12c0-.081 0-.096.055-.096h.619c.097 0 .097 0 .097.096v5.618c0 2.38-1.405 3.74-3.622 3.74v.001zm22.357.191c-1.804 0-3.14-.75-3.65-2.028-.083-.203-.055-.203.055-.245l.51-.177c.124-.054.124-.013.152.068.385 1.075 1.459 1.715 2.878 1.715 1.762 0 2.671-.654 2.671-1.81 0-1.238-.964-1.672-2.561-2.013-.125-.027-.4-.081-.523-.108-1.75-.395-2.92-1.02-2.92-2.53 0-1.497 1.157-2.518 3.291-2.518 1.86 0 2.892.953 3.292 2.055.04.122.04.163-.083.217l-.414.177c-.095.055-.123.027-.15-.04-.386-1.048-1.226-1.742-2.673-1.742-1.776 0-2.52.749-2.52 1.756 0 1.129.978 1.618 2.41 1.916.125.028.386.082.524.11 1.707.353 3.072.979 3.072 2.557 0 1.782-1.268 2.64-3.361 2.64zm19.936-.424h-.496c-.11 0-.138-.013-.138-.123v-8.936c0-.149.027-.163.152-.163h.51c.082 0 .11.027.11.163v8.936c0 .11-.014.123-.138.123zm20.786.424c-2.782 0-4.889-2.15-4.889-4.816s2.107-4.83 4.89-4.83c2.78 0 4.888 2.164 4.888 4.83s-2.108 4.815-4.889 4.815v.001zm0-8.965c-2.314 0-4.09 1.877-4.09 4.149 0 2.27 1.79 4.134 4.09 4.134 2.299 0 4.09-1.863 4.09-4.134 0-2.272-1.776-4.149-4.09-4.149z" stroke="#fff"/>
  <path stroke="#fff" stroke-opacity=".5" d="M156.5 1v33"/>
  <path d="M176.84 17.662c-1.608-.462-2.78-1.028-3.516-1.7-.729-.676-1.094-1.51-1.094-2.5 0-1.119.446-2.043 1.338-2.772.899-.736 2.064-1.104 3.496-1.104.977 0 1.846.189 2.608.566.768.378 1.361.899 1.777 1.563.423.664.635 1.39.635 2.178h-1.885c0-.86-.273-1.534-.82-2.022-.547-.495-1.318-.742-2.315-.742-.924 0-1.647.205-2.168.615-.514.404-.771.967-.771 1.69 0 .579.244 1.07.732 1.474.495.397 1.332.762 2.51 1.094 1.185.332 2.11.7 2.774 1.104.67.397 1.165.862 1.484 1.396.326.534.488 1.162.488 1.885 0 1.152-.449 2.076-1.347 2.773-.899.69-2.1 1.035-3.604 1.035a6.732 6.732 0 0 1-2.734-.556c-.847-.378-1.501-.892-1.963-1.543a3.77 3.77 0 0 1-.684-2.217h1.885c0 .86.316 1.54.947 2.04.638.496 1.488.743 2.549.743.99 0 1.748-.202 2.276-.605.527-.404.791-.954.791-1.65 0-.697-.245-1.235-.733-1.612-.488-.384-1.374-.762-2.656-1.133zm10.859 3.692l2.461-7.92h1.934l-4.248 12.197c-.658 1.758-1.703 2.637-3.135 2.637l-.342-.03-.674-.127v-1.465l.489.04c.612 0 1.087-.124 1.425-.372.345-.247.629-.7.85-1.357l.4-1.074-3.769-10.45h1.972l2.637 7.92zm12.168-.157c0-.488-.185-.866-.556-1.133-.365-.273-1.006-.507-1.924-.703-.912-.195-1.638-.43-2.178-.703-.534-.273-.931-.599-1.191-.976-.254-.378-.381-.827-.381-1.348 0-.866.364-1.598 1.093-2.197.736-.6 1.674-.899 2.813-.899 1.198 0 2.168.31 2.91.928.749.618 1.123 1.41 1.123 2.373h-1.816c0-.495-.212-.921-.635-1.28-.417-.357-.944-.536-1.582-.536-.658 0-1.172.143-1.543.43-.371.286-.557.66-.557 1.122 0 .437.173.765.518.987.345.221.967.433 1.865.634.905.202 1.638.443 2.197.723.56.28.974.619 1.241 1.016.273.39.41.869.41 1.435 0 .944-.378 1.703-1.133 2.276-.755.566-1.735.85-2.939.85-.847 0-1.595-.15-2.247-.45-.651-.3-1.162-.716-1.533-1.25a3.07 3.07 0 0 1-.547-1.748h1.807c.033.605.273 1.087.723 1.445.455.352 1.054.528 1.797.528.683 0 1.23-.137 1.64-.41.417-.28.625-.651.625-1.114zm6.612-10.322v2.559h1.972v1.396h-1.972v6.553c0 .423.087.742.263.957.176.208.475.312.899.312.208 0 .494-.039.859-.117V24a5.24 5.24 0 0 1-1.387.195c-.807 0-1.416-.244-1.826-.732-.41-.488-.615-1.182-.615-2.08V14.83h-1.924v-1.396h1.924v-2.559h1.807zm8.476 13.32c-1.432 0-2.598-.468-3.496-1.406-.898-.944-1.348-2.204-1.348-3.78v-.331c0-1.048.199-1.983.596-2.803.404-.827.964-1.471 1.68-1.934a4.224 4.224 0 0 1 2.343-.703c1.374 0 2.442.453 3.204 1.358.761.905 1.142 2.2 1.142 3.886v.752h-7.158c.026 1.042.329 1.885.908 2.53.586.638 1.328.957 2.227.957.638 0 1.178-.13 1.621-.39.443-.261.83-.606 1.162-1.036l1.103.86c-.885 1.36-2.213 2.04-3.984 2.04zm-.225-9.472a2.4 2.4 0 0 0-1.835.8c-.495.528-.801 1.27-.918 2.227h5.293v-.137c-.053-.918-.3-1.627-.743-2.129-.442-.507-1.041-.761-1.797-.761zm8.145-1.29l.049 1.172c.775-.911 1.819-1.367 3.135-1.367 1.477 0 2.483.567 3.017 1.7a4.019 4.019 0 0 1 1.367-1.231c.567-.313 1.234-.469 2.002-.469 2.318 0 3.496 1.228 3.535 3.682V24h-1.806v-6.973c0-.755-.173-1.318-.518-1.69-.345-.377-.924-.566-1.738-.566-.671 0-1.227.202-1.67.606-.443.397-.7.934-.771 1.611V24h-1.817v-6.924c0-1.536-.752-2.305-2.256-2.305-1.185 0-1.995.505-2.431 1.514V24h-1.807V13.434h1.709zm25.273 4.23c-1.608-.463-2.78-1.03-3.515-1.7-.729-.677-1.094-1.51-1.094-2.5 0-1.12.446-2.044 1.338-2.773.898-.736 2.064-1.104 3.496-1.104.977 0 1.846.189 2.607.566.769.378 1.361.899 1.778 1.563.423.664.635 1.39.635 2.178h-1.885c0-.86-.274-1.534-.82-2.022-.547-.495-1.319-.742-2.315-.742-.924 0-1.647.205-2.168.615-.514.404-.771.967-.771 1.69 0 .579.244 1.07.732 1.474.495.397 1.331.762 2.51 1.094 1.185.332 2.109.7 2.773 1.104.671.397 1.166.862 1.485 1.396.325.534.488 1.162.488 1.885 0 1.152-.449 2.076-1.348 2.773-.898.69-2.099 1.035-3.603 1.035a6.737 6.737 0 0 1-2.735-.556c-.846-.378-1.5-.892-1.963-1.543a3.777 3.777 0 0 1-.683-2.217h1.885c0 .86.315 1.54.947 2.04.638.496 1.488.743 2.549.743.989 0 1.748-.202 2.275-.605.527-.404.791-.954.791-1.65 0-.697-.244-1.235-.732-1.612-.489-.384-1.374-.762-2.657-1.133zm9.854-6.788v2.559h1.973v1.396h-1.973v6.553c0 .423.088.742.264.957.175.208.475.312.898.312.208 0 .495-.039.859-.117V24c-.475.13-.937.195-1.386.195-.808 0-1.416-.244-1.826-.732-.411-.488-.616-1.182-.616-2.08V14.83h-1.924v-1.396h1.924v-2.559h1.807zM268.617 24c-.104-.208-.189-.58-.254-1.113-.84.872-1.842 1.308-3.008 1.308-1.041 0-1.897-.293-2.568-.879-.664-.592-.996-1.34-.996-2.246 0-1.1.417-1.953 1.25-2.558.84-.612 2.018-.918 3.535-.918h1.758v-.83c0-.632-.189-1.133-.566-1.504-.378-.378-.935-.567-1.67-.567-.645 0-1.185.163-1.621.489-.437.325-.655.719-.655 1.181h-1.816c0-.527.185-1.035.556-1.523.378-.495.886-.886 1.524-1.172a5.157 5.157 0 0 1 2.119-.43c1.218 0 2.171.306 2.861.918.691.606 1.049 1.442 1.075 2.51v4.863c0 .97.123 1.742.371 2.315V24h-1.895zm-2.998-1.377a3.17 3.17 0 0 0 1.611-.44c.508-.292.876-.673 1.104-1.142v-2.168h-1.416c-2.214 0-3.32.648-3.32 1.943 0 .567.188 1.01.566 1.329.378.319.863.478 1.455.478zm9.805-11.748v2.559h1.972v1.396h-1.972v6.553c0 .423.088.742.264.957.175.208.475.312.898.312.208 0 .495-.039.859-.117V24c-.475.13-.937.195-1.386.195-.808 0-1.416-.244-1.827-.732-.41-.488-.615-1.182-.615-2.08V14.83h-1.924v-1.396h1.924v-2.559h1.807zm10.615 12.08c-.703.827-1.735 1.24-3.096 1.24-1.126 0-1.985-.325-2.578-.976-.586-.658-.882-1.628-.888-2.91v-6.875h1.806v6.826c0 1.601.651 2.402 1.953 2.402 1.381 0 2.299-.514 2.754-1.543v-7.685h1.807V24h-1.719l-.039-1.045zm10.664-1.758c0-.488-.185-.866-.557-1.133-.364-.273-1.005-.507-1.923-.703-.912-.195-1.638-.43-2.178-.703-.534-.273-.931-.599-1.191-.976-.254-.378-.381-.827-.381-1.348 0-.866.364-1.598 1.093-2.197.736-.6 1.674-.899 2.813-.899 1.198 0 2.168.31 2.91.928.749.618 1.123 1.41 1.123 2.373h-1.816c0-.495-.212-.921-.635-1.28-.417-.357-.944-.536-1.582-.536-.658 0-1.172.143-1.543.43-.371.286-.557.66-.557 1.122 0 .437.173.765.518.987.345.221.967.433 1.865.634.905.202 1.637.443 2.197.723.56.28.974.619 1.241 1.016.273.39.41.869.41 1.435 0 .944-.378 1.703-1.133 2.276-.755.566-1.735.85-2.939.85-.847 0-1.596-.15-2.247-.45-.651-.3-1.162-.716-1.533-1.25a3.07 3.07 0 0 1-.547-1.748h1.807c.033.605.273 1.087.723 1.445.455.352 1.054.528 1.797.528.683 0 1.23-.137 1.64-.41.417-.28.625-.651.625-1.114z" fill="#fff" fill-opacity=".75"/>
</svg>