<svg width="22" height="29" viewBox="0 0 22 29" fill="none" xmlns="http://www.w3.org/2000/svg">
<path d="M6.752 6.68499C6.752 8.42499 5.324 9.83499 3.564 9.83499C1.802 9.83499 0.375 8.42499 0.375 6.68499C0.375 4.94599 1.802 3.53699 3.565 3.53699C5.325 3.53699 6.752 4.94599 6.752 6.68499ZM20.047 0.873992C19.4281 0.300305 18.6118 -0.0125861 17.768 0.000452775C16.9242 0.0134917 16.1179 0.351455 15.517 0.943991H15.513L15.484 0.97699L15.454 1.00399C15.3729 1.08957 15.2968 1.17972 15.226 1.27399C13.344 3.53199 14.836 5.13599 12.613 7.46099C10.407 9.77099 8.709 8.42499 6.557 10.345C6.461 10.425 6.37 10.508 6.282 10.599L6.242 10.648C6.224 10.664 6.207 10.678 6.19 10.695L6.197 10.7C6.02047 10.9045 5.87122 11.1311 5.753 11.374C5.735 11.409 5.721 11.445 5.704 11.481C5.64125 11.6114 5.58778 11.7461 5.544 11.884C5.517 11.972 5.499 12.063 5.479 12.154C5.459 12.248 5.438 12.342 5.427 12.436C5.411 12.557 5.41 12.681 5.409 12.806C5.409 12.879 5.406 12.952 5.411 13.026C5.414 13.071 5.408 13.116 5.413 13.161H5.406C5.41 13.186 5.416 13.206 5.419 13.229C5.422 13.25 5.422 13.269 5.427 13.291C5.445 13.411 5.471 13.53 5.503 13.646C6.149 16.384 8.28 16.239 8.748 19.32C9.221 22.424 7.109 22.89 7.344 25.753C7.349 25.865 7.358 25.979 7.376 26.094C7.378 26.106 7.383 26.12 7.383 26.132L7.389 26.177H7.393C7.695 27.851 9.291 28.995 11.003 28.74C12.717 28.485 13.901 26.929 13.691 25.24L13.695 25.238L13.685 25.196L13.683 25.156C13.6646 25.0429 13.6406 24.9307 13.611 24.82C12.983 22.018 10.826 22.186 10.351 19.083C9.977 16.613 11.006 16.179 11.647 14.15C12.289 12.121 11.802 10.69 13.817 8.58299C16.04 6.25699 17.747 7.63599 19.922 5.65299C20.012 5.57699 20.097 5.49799 20.179 5.41199L20.206 5.38099L20.239 5.34899L20.236 5.34699C20.8005 4.72708 21.0974 3.9093 21.062 3.0716C21.0266 2.2339 20.6618 1.44407 20.047 0.873992Z" fill="white"/>
</svg>
